<svg width="212" height="212" viewBox="0 0 212 212" fill="none" xmlns="http://www.w3.org/2000/svg">
<g filter="url(#filter0_d_77_829)">
<path d="M66 74L95.5 58L106 67.5L116 56L146 73L136 84L144 97L136 102V118.5L105.5 135.5L76.5 118.5L76 102L69 97L76 84L66 74Z" fill="white"/>
</g>
<path d="M68.5 98L76 84.5L106 101.5L105.5 136L76 119V102L68.5 98Z" fill="#E9F1FF"/>
<path d="M76.5 84.5L106 67.5L130.5 81.5L135.5 84L106 101.5L76.5 84.5Z" fill="#DAE5F8"/>
<path d="M106 84.5V67.5L130.5 81.5L135.5 84L106 101.5V84.5Z" fill="#CDDAF2"/>
<path d="M94.819 56.7294C95.1871 56.5907 95.6077 56.6623 95.9106 56.9272L106.711 66.3772L105.289 68.0031L95.066 59.0585L67.7715 74.5949L77.4791 83.4939L76.0201 85.0864L65.2201 75.1864C64.9656 74.9532 64.8378 74.6119 64.8764 74.2689C64.9152 73.926 65.1153 73.6222 65.4152 73.4515L94.6652 56.8015L94.819 56.7294Z" fill="#333333"/>
<path d="M115.073 55.246C115.408 54.8473 115.98 54.744 116.433 55.0008L146.583 72.1008C146.873 72.2652 147.071 72.5549 147.119 72.8848C147.167 73.2145 147.06 73.5479 146.829 73.7883L136.029 85.0383L134.471 83.5424L144.309 73.2943L116.149 57.3228L107.277 67.8847L105.623 66.496L115.073 55.246Z" fill="#333333"/>
<path d="M106.006 65.8403C106.219 65.8404 106.429 65.8963 106.613 66.0024L136.51 83.1724C136.768 83.3234 136.962 83.564 137.053 83.8481L144.541 96.7573H144.538C144.699 97.0348 144.742 97.3649 144.659 97.6743C144.576 97.9839 144.372 98.2482 144.093 98.4087L137.121 102.414V118.567C137.12 118.779 137.063 118.986 136.956 119.169C136.849 119.352 136.695 119.505 136.51 119.61L106.606 136.78C106.421 136.885 106.211 136.94 105.998 136.94C105.785 136.94 105.576 136.885 105.391 136.78L75.4971 119.605C75.3123 119.5 75.1581 119.348 75.0508 119.166C74.9434 118.983 74.8859 118.774 74.8848 118.562V102.413L67.9072 98.4077C67.6285 98.2473 67.4252 97.9836 67.3418 97.6743C67.2584 97.3649 67.3021 97.0349 67.4629 96.7573L74.9502 83.8501C75.0404 83.565 75.2337 83.3233 75.4932 83.1724L105.397 66.0024C105.582 65.8962 105.792 65.8403 106.006 65.8403ZM77.3164 117.864L104.784 133.637V105.901L99.4424 115.112C99.2809 115.389 99.0152 115.591 98.7041 115.674C98.3931 115.757 98.0615 115.715 97.7822 115.555L77.3164 103.809V117.864ZM114.219 115.564C113.94 115.724 113.608 115.767 113.297 115.684C112.986 115.601 112.72 115.398 112.559 115.121L107.218 105.91V133.637L134.687 117.865V103.809L114.219 115.564ZM70.1758 96.9185L97.9453 112.861L104.342 101.834L76.5703 85.895L70.1758 96.9185ZM109.652 100.696L107.662 101.834L114.057 112.861L141.827 96.9185L135.432 85.895L109.652 100.696ZM106.827 68.9683C106.309 68.7002 105.692 68.7002 105.174 68.9683L104.786 69.1685V69.145L104.378 69.3784L104.2 69.4712V69.481L78.5322 84.2192L104.2 98.9575V98.9644L105.077 99.4888C105.646 99.8285 106.355 99.8285 106.924 99.4888L107.801 98.9644L109.969 97.7192L133.471 84.2192L107.801 69.4761V69.4712L107.716 69.4272L107.223 69.144V69.1724L106.827 68.9683Z" fill="#333333"/>
<defs>
<filter id="filter0_d_77_829" x="0" y="0" width="212" height="211.5" filterUnits="userSpaceOnUse" color-interpolation-filters="sRGB">
<feFlood flood-opacity="0" result="BackgroundImageFix"/>
<feColorMatrix in="SourceAlpha" type="matrix" values="0 0 0 0 0 0 0 0 0 0 0 0 0 0 0 0 0 0 127 0" result="hardAlpha"/>
<feOffset dy="10"/>
<feGaussianBlur stdDeviation="33"/>
<feComposite in2="hardAlpha" operator="out"/>
<feColorMatrix type="matrix" values="0 0 0 0 0.0392157 0 0 0 0 0.360784 0 0 0 0 0.85098 0 0 0 0.28 0"/>
<feBlend mode="normal" in2="BackgroundImageFix" result="effect1_dropShadow_77_829"/>
<feBlend mode="normal" in="SourceGraphic" in2="effect1_dropShadow_77_829" result="shape"/>
</filter>
</defs>
</svg>
