<svg width="160" height="32" viewBox="0 0 160 32" fill="none" xmlns="http://www.w3.org/2000/svg">
<rect width="160" height="32" fill="white"/>
<g clip-path="url(#clip0_154_1257)">
<mask id="mask0_154_1257" style="mask-type:luminance" maskUnits="userSpaceOnUse" x="2" y="0" width="156" height="32">
<path d="M2 0H158V32H2V0Z" fill="white"/>
</mask>
<g mask="url(#mask0_154_1257)">
<path fill-rule="evenodd" clip-rule="evenodd" d="M147.279 12.9226C146.885 13.3177 146.567 13.7872 146.342 14.3123L146.342 14.3132C146.115 14.8394 146.002 15.4112 146.002 16.0114V22.7629C146.002 23.1886 145.654 23.5372 145.229 23.5372H143.658C143.233 23.5372 142.885 23.1886 142.885 22.7629V16.0114C142.885 14.9657 143.083 13.9834 143.469 13.0846V13.084C143.857 12.1837 144.398 11.3852 145.072 10.7089C145.747 10.0329 146.551 9.49373 147.459 9.10488L147.459 9.10431C148.368 8.71802 149.346 8.52002 150.365 8.52002C151.406 8.52002 152.39 8.71859 153.287 9.10516H153.287C154.185 9.49373 154.987 10.0346 155.673 10.7097C156.36 11.3863 156.904 12.1854 157.293 13.0837L157.293 13.0846C157.679 13.9834 157.877 14.9689 157.877 16.0114V22.7629C157.877 23.1886 157.529 23.5372 157.104 23.5372H155.533C155.108 23.5372 154.76 23.1886 154.76 22.7629V16.0114C154.76 15.4106 154.644 14.8389 154.42 14.3123C154.195 13.7872 153.88 13.3174 153.483 12.9197C153.086 12.522 152.612 12.2072 152.078 11.9817C151.541 11.7566 150.966 11.6429 150.365 11.6429C149.766 11.6429 149.195 11.7589 148.669 11.9837C148.145 12.2092 147.676 12.5246 147.279 12.9226Z" fill="#494949"/>
<path fill-rule="evenodd" clip-rule="evenodd" d="M132.56 20.0513C133.344 20.4158 134.18 20.5347 135.047 20.401C135.959 20.2607 136.77 19.8407 137.455 19.1544L137.994 18.6144C138.296 18.3124 138.787 18.3124 139.089 18.6144L140.201 19.7287C140.502 20.0304 140.504 20.5164 140.203 20.823C140.202 20.8238 140.201 20.8244 140.201 20.8253L139.662 21.3653C138.951 22.0776 138.132 22.6281 137.223 23.0053C136.315 23.3824 135.35 23.5741 134.352 23.5741C133.354 23.5741 132.389 23.3824 131.48 23.0053C130.572 22.6281 129.75 22.0744 129.042 21.3653C128.308 20.6301 127.758 19.7927 127.405 18.8716C127.05 17.9516 126.871 16.9984 126.871 16.0456C126.871 15.0918 127.05 14.147 127.405 13.2381C127.758 12.3293 128.309 11.495 129.042 10.7601C129.774 10.0264 130.612 9.46956 131.53 9.10413C132.45 8.73641 133.399 8.55127 134.352 8.55127C135.304 8.55127 136.254 8.73927 137.173 9.10413C138.091 9.46956 138.929 10.0261 139.662 10.7601L140.201 11.3001C140.502 11.6024 140.502 12.0944 140.201 12.3967L132.56 20.0513ZM130.419 17.979C130.42 17.981 130.421 17.9833 130.422 17.9853L130.424 17.9818C130.424 17.9818 130.422 17.9807 130.419 17.979ZM130.354 17.8427L133.186 15.0061C133.788 14.3998 134.374 13.8218 134.933 13.2698L134.934 13.2693C135.443 12.7698 135.845 12.3704 136.146 12.071C135.363 11.7056 134.526 11.5838 133.658 11.705C132.745 11.8347 131.935 12.2516 131.252 12.9367L131.251 12.937C130.391 13.7956 129.957 14.8424 129.957 16.0456C129.957 16.6707 130.089 17.2747 130.354 17.8427Z" fill="#494949"/>
<path fill-rule="evenodd" clip-rule="evenodd" d="M120.393 11.6429H113.45C113.025 11.6429 112.677 11.2943 112.677 10.8686V9.2943C112.677 8.86859 113.025 8.52002 113.45 8.52002H124.926C125.56 8.52002 125.924 9.24173 125.551 9.75373C124.617 11.0346 123.725 12.2872 122.885 13.4883L122.885 13.4886C122.431 14.1354 121.954 14.8077 121.465 15.4886C120.984 16.1589 120.52 16.8092 120.082 17.4366C119.63 18.0843 119.218 18.658 118.828 19.1883C118.483 19.6617 118.187 20.0697 117.939 20.4143H124.881C125.306 20.4143 125.654 20.7629 125.654 21.1886V22.7629C125.654 23.1886 125.306 23.5372 124.881 23.5372H113.359C112.73 23.5372 112.365 22.8206 112.733 22.3083L112.733 22.3077C113.654 21.0314 114.552 19.7783 115.415 18.5677C115.87 17.9172 116.353 17.244 116.851 16.5677C117.334 15.9132 117.806 15.258 118.252 14.6203C118.681 14.0069 119.102 13.4189 119.506 12.8683C119.852 12.3972 120.147 11.9892 120.393 11.6429Z" fill="#494949"/>
<path fill-rule="evenodd" clip-rule="evenodd" d="M105.861 12.8884C105.464 13.2861 105.149 13.753 104.924 14.2781L104.923 14.279C104.696 14.8053 104.584 15.377 104.584 15.9773V22.7287C104.584 23.1544 104.236 23.503 103.811 23.503H102.208C101.783 23.503 101.435 23.1544 101.435 22.7287V15.9773C101.435 14.9313 101.63 13.9487 102.019 13.0496C102.408 12.1516 102.952 11.3524 103.639 10.6758C104.322 10.0004 105.131 9.45898 106.041 9.07041L106.041 9.07013C106.95 8.68384 107.927 8.48584 108.947 8.48584H109.748C110.173 8.48584 110.521 8.83441 110.521 9.26013V10.8344C110.521 11.2601 110.173 11.6087 109.748 11.6087H108.947C108.347 11.6087 107.777 11.7247 107.251 11.9496C106.727 12.175 106.258 12.4904 105.861 12.8884Z" fill="#494949"/>
<path fill-rule="evenodd" clip-rule="evenodd" d="M90.8735 20.0513C91.6575 20.4158 92.4934 20.5347 93.3607 20.401C94.2727 20.2607 95.0838 19.8407 95.7685 19.1544L96.3076 18.6144C96.6093 18.3124 97.1004 18.3124 97.4021 18.6144L98.5144 19.7287C98.8153 20.0304 98.8175 20.5164 98.5164 20.823C98.5155 20.8238 98.515 20.8244 98.5144 20.8253L97.9754 21.3653C97.2641 22.0776 96.4453 22.6281 95.537 23.0053C94.6286 23.3824 93.6635 23.5741 92.6654 23.5741C91.6672 23.5741 90.7021 23.3824 89.7938 23.0053C88.8854 22.6281 88.0635 22.0744 87.3554 21.3653C86.6219 20.6301 86.0714 19.7927 85.7181 18.8716C85.3633 17.9516 85.1848 16.9984 85.1848 16.0456C85.1848 15.0918 85.3636 14.147 85.7187 13.2381C86.072 12.3293 86.6221 11.495 87.3554 10.7601C88.088 10.0264 88.9256 9.46956 89.8437 9.10413C90.7634 8.73641 91.7128 8.55127 92.6654 8.55127C93.6176 8.55127 94.5673 8.73927 95.4868 9.10413C96.4048 9.46956 97.2427 10.0261 97.9754 10.7601L98.5144 11.3001C98.8158 11.6024 98.8158 12.0944 98.5144 12.3967L90.8735 20.0513ZM88.7257 18.2573L88.7252 18.2558L88.7249 18.2561L88.7254 18.2576L88.7257 18.2573ZM88.659 18.097L88.6593 18.0964L88.5994 17.9516L88.5985 17.9518L88.659 18.097ZM88.6678 17.8427L91.4992 15.0061C92.1016 14.3998 92.687 13.8218 93.2466 13.2698L93.2472 13.2693C93.7562 12.7698 94.1581 12.3704 94.4598 12.071C93.6769 11.7056 92.8399 11.5838 91.9715 11.705C91.0583 11.8347 90.2487 12.2516 89.5651 12.9367L89.5645 12.937C88.7049 13.7956 88.2706 14.8424 88.2706 16.0456C88.2706 16.6707 88.4029 17.2747 88.6678 17.8427ZM88.7329 17.979C88.7337 17.981 88.7346 17.9833 88.7354 17.9853L88.738 17.9818C88.738 17.9818 88.736 17.9807 88.7329 17.979Z" fill="#494949"/>
<path fill-rule="evenodd" clip-rule="evenodd" d="M76.677 17.2881C76.985 16.6556 77.3329 15.943 77.7208 15.1482C78.1483 14.272 78.5701 13.402 78.989 12.5346C79.4054 11.6676 79.7901 10.867 80.1438 10.1299C80.3873 9.61778 80.5995 9.1849 80.7709 8.84449C80.9064 8.57269 81.1739 8.40918 81.4659 8.40918H83.2683C83.8455 8.40918 84.2337 9.05018 83.9702 9.58898C83.9702 9.58898 77.3765 23.0736 77.3774 23.0721C77.0848 23.6776 76.2703 23.6776 75.9782 23.073L69.4131 9.58835L69.4125 9.58775C69.1493 9.04352 69.54 8.40918 70.1124 8.40918H71.872C72.1684 8.40918 72.4362 8.57664 72.5708 8.85241C72.8334 9.38632 73.1215 9.97515 73.438 10.6213C73.835 11.4292 74.2289 12.2495 74.6259 13.0786L74.6261 13.0795C75.0217 13.9116 75.4141 14.7195 75.7954 15.4818L75.7957 15.4825C76.1428 16.1808 76.434 16.7763 76.677 17.2881Z" fill="#494949"/>
<path fill-rule="evenodd" clip-rule="evenodd" d="M67.6121 18.9576C67.224 19.8668 66.6804 20.6773 65.994 21.3653L65.9934 21.3656C65.3041 22.0533 64.5015 22.5973 63.6063 22.9859L63.6055 22.9862C62.7083 23.3728 61.7278 23.5713 60.684 23.5713C59.6613 23.5713 58.6833 23.3759 57.777 22.9865C56.8687 22.5973 56.065 22.0522 55.3897 21.3636C54.7123 20.6791 54.1747 19.8691 53.7869 18.9573L53.7866 18.9568C53.401 18.0462 53.2034 17.0671 53.2034 16.0456C53.2034 14.9999 53.4016 14.0176 53.7874 13.1188V13.1182C54.1756 12.2179 54.7163 11.4193 55.3911 10.7431C56.0661 10.0671 56.8692 9.52791 57.7773 9.13906L57.7781 9.13848C58.687 8.7522 59.6644 8.5542 60.684 8.5542C61.7246 8.5542 62.7083 8.75277 63.6055 9.13934H63.606C64.5035 9.52791 65.3058 10.0688 65.9917 10.7439C66.679 11.4205 67.2231 12.2196 67.6116 13.1179L67.6118 13.1188C67.9977 14.0176 68.1959 15.0031 68.1959 16.0456C68.1959 17.0673 68.0011 18.0468 67.6121 18.9576ZM64.7405 17.7613C64.9655 17.2256 65.0845 16.6476 65.0845 16.0456C65.0845 15.4448 64.9687 14.8731 64.7442 14.3465C64.5192 13.8213 64.2044 13.3516 63.8071 12.9539C63.4104 12.5562 62.9367 12.2413 62.4022 12.0159C61.8649 11.7908 61.2906 11.6771 60.6897 11.6771C60.0888 11.6771 59.5144 11.7908 58.9771 12.0159C58.4426 12.2413 57.9689 12.5562 57.5722 12.9539C57.175 13.3516 56.8601 13.8213 56.6351 14.3465L56.6348 14.3473C56.4075 14.8736 56.2949 15.4453 56.2949 16.0456C56.2949 16.6476 56.4084 17.2231 56.6331 17.7613C56.8581 18.2968 57.1724 18.7713 57.5694 19.1688L57.5699 19.1696C57.9638 19.5668 58.4372 19.8813 58.9737 20.1065L58.9742 20.1068C59.509 20.3322 60.0859 20.4456 60.6868 20.4456C61.2851 20.4456 61.8621 20.3319 62.3994 20.1068C62.9338 19.8813 63.4075 19.5665 63.8042 19.1688C64.2012 18.7713 64.5155 18.2965 64.7405 17.7613Z" fill="#494949"/>
<path fill-rule="evenodd" clip-rule="evenodd" d="M50.2485 10.6947L50.7875 11.2347C51.0892 11.5373 51.0889 12.0238 50.7923 12.3261C50.7282 12.3916 49.7611 13.3744 49.6992 13.4384C49.402 13.7464 48.9152 13.753 48.6081 13.4556L48.0405 12.907C48.0391 12.9056 48.0377 12.9041 48.036 12.9027C47.6079 12.4736 47.1191 12.1444 46.5826 11.9298C45.5103 11.5001 44.3581 11.5001 43.2858 11.9298C42.7494 12.1444 42.2608 12.4733 41.8382 12.897C41.8359 12.899 41.8339 12.901 41.8319 12.903C41.4035 13.3107 41.0773 13.787 40.8645 14.3238V14.3244C40.6498 14.863 40.5408 15.4175 40.5408 15.9773C40.5408 16.5395 40.6498 17.0935 40.864 17.6293C41.081 18.1673 41.4067 18.657 41.8353 19.0861L41.8356 19.0867C42.6926 19.9478 43.7376 20.383 44.9385 20.383C45.5163 20.383 46.0835 20.2741 46.6191 20.059C47.1553 19.8433 47.6333 19.5167 48.0328 19.0955C48.036 19.0921 48.0394 19.0887 48.0428 19.0855L48.6103 18.5341C48.6112 18.5333 48.6121 18.5324 48.6129 18.5315C48.9189 18.2401 49.404 18.2467 49.6998 18.5481L50.7949 19.6624C51.0918 19.9647 51.0921 20.4515 50.7904 20.7541L50.2456 21.2998C49.513 22.0335 48.6751 22.5904 47.757 22.9558C45.9178 23.6887 43.9563 23.6887 42.1171 22.9558C41.1991 22.5904 40.3612 22.0335 39.6285 21.2998C38.8953 20.565 38.3451 19.7307 37.9918 18.8218C37.6367 17.9133 37.4579 16.9627 37.4579 15.9973C37.4579 15.0321 37.6367 14.0816 37.9915 13.1733C38.3449 12.2613 38.895 11.4298 39.6285 10.6947C40.3612 9.96098 41.1988 9.40412 42.1168 9.0387C43.0366 8.67098 43.986 8.48584 44.9385 8.48584C45.8908 8.48584 46.8404 8.67384 47.7599 9.0387C48.6779 9.40412 49.5158 9.9607 50.2485 10.6947Z" fill="#494949"/>
<path fill-rule="evenodd" clip-rule="evenodd" d="M30.0395 4.544C30.2725 5.96258 30.3906 7.41858 30.4051 8.86601V8.86858C30.4051 10.3023 30.2899 11.7449 30.0623 13.1497V13.1503C29.8596 14.388 28.7764 15.3029 27.5218 15.3029H27.4591C27.4571 15.3029 27.4548 15.3029 27.4528 15.3029C27.2238 15.2972 26.9894 15.2943 26.7575 15.2943C20.6296 15.2943 14.6882 17.4726 10.0287 21.4332L10.0276 21.4343C9.84735 21.5857 9.81227 21.856 9.94888 22.0477L9.94973 22.0489C10.3641 22.6363 10.8153 23.2123 11.2861 23.7574C11.2867 23.7583 11.2873 23.7592 11.2881 23.76C11.3204 23.7983 11.368 23.82 11.4182 23.8235C11.4199 23.8237 11.4216 23.8237 11.423 23.824C11.4775 23.8289 11.5291 23.8086 11.5699 23.7726L11.5708 23.7717C15.5823 20.27 20.511 18.3054 25.8261 18.0889L27.3804 18.026H27.3818C27.7235 18.0143 28.0415 18.178 28.2277 18.4657C28.4148 18.7546 28.4342 19.1137 28.2785 19.4217L27.5772 20.8129C25.3136 25.3106 21.8408 29.0583 17.5299 31.6546L17.5293 31.6549C17.1272 31.896 16.6709 32.0229 16.2054 32.0229C15.7397 32.0229 15.28 31.8957 14.8807 31.6546C11.2756 29.4823 8.19437 26.4415 5.97701 22.8612C5.33703 21.8263 5.51442 20.4737 6.39538 19.6389C11.6512 14.6643 18.5212 11.7909 25.7422 11.5489L25.7431 11.5486C26.1777 11.5354 26.5322 11.1912 26.5673 10.7534C26.6181 10.1292 26.6435 9.49601 26.6435 8.87144C26.6435 8.02686 26.5955 7.17343 26.5026 6.33743C26.4478 5.85286 26.1079 5.438 25.6384 5.28115C22.61 4.27257 19.4347 3.76286 16.2026 3.76286C12.9651 3.76286 9.78945 4.27543 6.761 5.284C6.29157 5.44086 5.95162 5.85315 5.89687 6.34001C5.80389 7.17629 5.75598 8.02944 5.75598 8.87429C5.75598 9.42229 5.77281 9.96458 5.81245 10.5072V10.5083C5.8558 11.1437 5.54979 11.7494 5.01619 12.1003C4.58213 12.3874 4.15092 12.68 3.72513 12.9814L3.72456 12.982C3.13621 13.3957 2.31827 13.0363 2.22473 12.322C2.07501 11.1823 2 10.0283 2 8.87144C2 7.41743 2.11807 5.96058 2.35136 4.544C2.52875 3.46429 3.26198 2.56029 4.26186 2.17972C8.06661 0.734286 12.0815 0 16.1969 0C20.3065 0 24.3211 0.731429 28.1262 2.17657C29.1289 2.55743 29.8621 3.46429 30.0395 4.544ZM22.2198 22.3797C19.3251 23.0897 16.5996 24.4637 14.3083 26.3743C14.2641 26.4115 14.2379 26.466 14.2402 26.5237C14.2404 26.5272 14.2404 26.5309 14.2404 26.5343C14.2404 26.5952 14.267 26.6523 14.314 26.6897L14.3149 26.6903C14.7464 27.0352 15.195 27.3715 15.6519 27.6852L15.6524 27.6855C15.819 27.8006 16.0084 27.8572 16.1997 27.8572C16.3891 27.8572 16.5805 27.8003 16.7473 27.6855C18.8648 26.2277 20.7049 24.4452 22.2198 22.3797Z" fill="#04C8C8"/>
</g>
</g>
<defs>
<clipPath id="clip0_154_1257">
<rect width="156" height="32" fill="white" transform="translate(2)"/>
</clipPath>
</defs>
</svg>
