<svg width="160" height="32" viewBox="0 0 160 32" fill="none" xmlns="http://www.w3.org/2000/svg">
<rect width="160" height="32" fill="white"/>
<g clip-path="url(#clip0_154_1241)">
<path d="M76.4325 24.4485C75.5994 24.4485 74.8535 24.2906 74.1948 23.9746C73.5361 23.6389 73.013 23.1452 72.6255 22.4936C72.2574 21.8419 72.0733 21.0323 72.0733 20.0647C72.0733 19.2551 72.2186 18.564 72.5092 17.9913C72.8192 17.4187 73.2745 16.9546 73.8751 16.5992C74.4757 16.224 75.2216 15.9179 76.1129 15.6809C77.0041 15.4242 78.0503 15.207 79.2515 15.0293C79.9102 14.9306 80.443 14.8318 80.8499 14.7331C81.2761 14.6344 81.5861 14.4863 81.7799 14.2888C81.9736 14.0716 82.0705 13.7556 82.0705 13.3409C82.0705 12.7288 81.8574 12.2055 81.4311 11.7711C81.0243 11.3169 80.3559 11.0898 79.4259 11.0898C78.864 11.0898 78.3215 11.1885 77.7984 11.386C77.2947 11.5835 76.8588 11.8994 76.4907 12.3338C76.1226 12.7485 75.8707 13.3014 75.7351 13.9926L72.4511 12.9559C72.6642 12.166 72.9742 11.4847 73.3811 10.9121C73.7879 10.3197 74.2917 9.81613 74.8923 9.40144C75.4929 8.98676 76.1807 8.68068 76.9557 8.48321C77.7306 8.28575 78.5831 8.18701 79.5131 8.18701C80.9274 8.18701 82.0899 8.42397 83.0005 8.8979C83.911 9.35207 84.5892 10.0728 85.0348 11.0602C85.4804 12.0278 85.7032 13.2817 85.7032 14.8219V17.7247C85.7032 18.3961 85.7129 19.0971 85.7322 19.8278C85.771 20.5387 85.8097 21.2594 85.8485 21.9901C85.9066 22.7009 85.9744 23.3921 86.0519 24.0635H82.768C82.6905 23.5106 82.6227 22.9182 82.5645 22.2863C82.5064 21.6544 82.458 21.0126 82.4192 20.3609H81.9542C81.683 21.1113 81.2955 21.8025 80.7918 22.4344C80.288 23.0465 79.6681 23.5402 78.9318 23.9154C78.215 24.2708 77.3819 24.4485 76.4325 24.4485ZM77.8856 21.6938C78.2731 21.6938 78.6606 21.6247 79.0481 21.4865C79.4549 21.3483 79.8521 21.1409 80.2396 20.8645C80.6271 20.588 80.9855 20.2523 81.3149 19.8574C81.6443 19.4427 81.9252 18.9589 82.1577 18.406L82.0995 15.7698L82.797 15.8883C82.4677 16.1647 82.0608 16.3819 81.5764 16.5399C81.0921 16.6979 80.5787 16.8164 80.0362 16.8954C79.5131 16.9744 78.9803 17.0731 78.4378 17.1916C77.9147 17.2903 77.44 17.4285 77.0138 17.6063C76.5875 17.7642 76.2485 18.0012 75.9966 18.3171C75.7448 18.6133 75.6188 19.028 75.6188 19.5612C75.6188 20.2326 75.8319 20.7559 76.2582 21.1311C76.6844 21.5063 77.2269 21.6938 77.8856 21.6938Z" fill="#156FF7"/>
<path d="M58.5085 24.0632V20.8642L66.5876 12.0373V11.6227H58.6247V8.57178H71.2956V11.7115L63.1002 20.5976V20.9827H71.3537V24.0632H58.5085Z" fill="#156FF7"/>
<path d="M44.7496 24.0632V20.8642L52.8287 12.0373V11.6227H44.8659V8.57178H57.5367V11.7115L49.3414 20.5976V20.9827H57.5948V24.0632H44.7496Z" fill="#156FF7"/>
<path d="M39.4727 24.0632V8.57178H43.1344V24.0632H39.4727Z" fill="#156FF7"/>
<path d="M33.2061 24.0631V3.03271H36.8097V24.0631H33.2061Z" fill="#156FF7"/>
<path d="M23.7491 24.4485C22.2573 24.4485 20.9398 24.1425 19.7967 23.5303C18.6536 22.8984 17.7527 21.9802 17.094 20.7756C16.4547 19.5513 16.1349 18.0506 16.1349 16.2733C16.1349 14.4566 16.4643 12.9559 17.1231 11.7711C17.8012 10.5665 18.7118 9.66802 19.8549 9.07562C20.9979 8.48321 22.2863 8.18701 23.72 8.18701C25.2119 8.18701 26.5293 8.49309 27.6724 9.10524C28.8155 9.71739 29.7164 10.6356 30.3751 11.8599C31.0339 13.0645 31.3632 14.5652 31.3632 16.3622C31.3632 18.1789 31.0339 19.6895 30.3751 20.8941C29.7164 22.0987 28.8058 22.9971 27.6434 23.5895C26.5003 24.1622 25.2022 24.4485 23.7491 24.4485ZM23.8944 21.605C24.7081 21.605 25.3959 21.4174 25.9578 21.0422C26.5196 20.6473 26.9459 20.0647 27.2365 19.2946C27.5465 18.5245 27.7015 17.6063 27.7015 16.5399C27.7015 15.4144 27.5368 14.4566 27.2074 13.6668C26.8974 12.8571 26.4421 12.2351 25.8415 11.8007C25.2603 11.3663 24.5241 11.149 23.6329 11.149C22.8579 11.149 22.1798 11.3465 21.5985 11.7414C21.0173 12.1166 20.5717 12.6794 20.2617 13.4298C19.9711 14.1802 19.8258 15.1083 19.8258 16.2141C19.8258 17.9518 20.1842 19.2847 20.9011 20.2128C21.6373 21.1409 22.6351 21.605 23.8944 21.605Z" fill="#156FF7"/>
<path d="M0.12582 28.9804V16.4214V8.57208H3.20634L3.17728 12.7782L3.67133 12.8078C3.86507 11.8204 4.17506 10.9812 4.6013 10.29C5.04691 9.59891 5.60877 9.07562 6.28687 8.72018C6.96497 8.36473 7.76901 8.18701 8.69898 8.18701C10.0552 8.18701 11.208 8.53258 12.1573 9.22372C13.1066 9.89511 13.8235 10.8528 14.3079 12.0969C14.8116 13.3212 15.0635 14.7528 15.0635 16.3918C15.0635 17.9321 14.831 19.3144 14.366 20.5387C13.9204 21.7432 13.2326 22.7009 12.3026 23.4118C11.392 24.103 10.2586 24.4485 8.90241 24.4485C7.91432 24.4485 7.08122 24.2511 6.40312 23.8561C5.72501 23.4612 5.17284 22.9181 4.74661 22.227C4.32037 21.5359 3.97163 20.7361 3.70039 19.8278H3.17728C3.29353 20.3609 3.3904 20.9138 3.4679 21.4865C3.56477 22.0394 3.64227 22.5923 3.70039 23.1452C3.75851 23.6784 3.78758 24.1918 3.78758 24.6855V28.9804H0.12582ZM7.71088 21.3976C8.46649 21.3976 9.10584 21.1903 9.62895 20.7756C10.1521 20.3412 10.5492 19.7488 10.8205 18.9984C11.0917 18.2283 11.2273 17.3495 11.2273 16.3622C11.2273 15.3354 11.082 14.4468 10.7914 13.6964C10.5202 12.946 10.1133 12.3635 9.57082 11.9488C9.02834 11.5341 8.38899 11.3268 7.65276 11.3268C7.01341 11.3268 6.45155 11.4749 5.96719 11.7711C5.48283 12.0673 5.07597 12.4622 4.74661 12.9559C4.41724 13.4298 4.17506 13.9432 4.02007 14.4961C3.86507 15.049 3.78758 15.5921 3.78758 16.1252V16.6288C3.78758 17.0237 3.83601 17.4384 3.93288 17.8728C4.04913 18.2875 4.21381 18.7121 4.42693 19.1465C4.64005 19.5612 4.9016 19.9463 5.21159 20.3017C5.52158 20.6374 5.88969 20.904 6.31593 21.1014C6.74217 21.2989 7.20715 21.3976 7.71088 21.3976Z" fill="#156FF7"/>
<path d="M156.914 24.4185C155.306 24.4185 154.124 23.9841 153.368 23.1152C152.613 22.2266 152.235 20.8542 152.235 18.998V11.5633H149.997L150.055 8.60131H151.537C152.099 8.60131 152.516 8.51245 152.787 8.33473C153.058 8.15701 153.223 7.84106 153.281 7.38688L153.63 5.13574H155.751V8.57169H159.762V11.6818H155.751V18.8499C155.751 19.5806 155.916 20.1137 156.245 20.4494C156.594 20.7851 157.108 20.953 157.786 20.953C158.154 20.953 158.512 20.9135 158.861 20.8345C159.229 20.7357 159.568 20.5778 159.878 20.3606V23.915C159.278 24.1124 158.725 24.2408 158.222 24.3C157.737 24.379 157.301 24.4185 156.914 24.4185Z" fill="#156FF7"/>
<path d="M145.272 24.0632V8.57178H148.934V24.0632H145.272Z" fill="#156FF7"/>
<path fill-rule="evenodd" clip-rule="evenodd" d="M102.038 3.82275C94.9047 3.82275 89.1221 9.71674 89.1221 16.9873V24.901C89.1221 26.446 90.3509 27.6985 91.8668 27.6985H128.678C133.939 27.6985 138.204 23.3517 138.204 17.9896V6.45567C138.204 5.00156 137.047 3.82275 135.621 3.82275H102.038ZM120.747 15.1866V22.9114H124.854V18.0801C124.854 16.7195 124.964 15.6344 125.183 14.8249C125.403 14.0154 125.707 13.4298 126.096 13.0681C126.485 12.7064 126.932 12.5255 127.439 12.5255C128.048 12.5255 128.487 12.758 128.757 13.2231C129.045 13.6881 129.188 14.3857 129.188 15.3157V22.9114H133.295V14.7732C133.295 12.8269 132.923 11.3629 132.179 10.3812C131.453 9.39942 130.363 8.90855 128.91 8.90855C127.946 8.90855 127.152 9.12386 126.527 9.55444C125.902 9.98503 125.42 10.6395 125.082 11.5179C124.744 12.3791 124.524 13.4814 124.423 14.8249H124.22V9.27025H120.747V15.1866ZM113.445 23.2731C112.178 23.2731 111.113 23.0922 110.251 22.7305C109.407 22.3515 108.722 21.8436 108.198 21.2062C107.674 20.5518 107.294 19.8111 107.058 18.9844C106.838 18.1577 106.728 17.2878 106.728 16.375C106.728 15.3932 106.846 14.4546 107.083 13.5589C107.336 12.6633 107.717 11.871 108.224 11.1821C108.748 10.4759 109.415 9.92476 110.226 9.5286C111.054 9.11523 112.043 8.90855 113.192 8.90855C114.341 8.90855 115.321 9.11523 116.132 9.5286C116.96 9.92476 117.619 10.4845 118.109 11.2079C118.6 11.9313 118.912 12.7667 119.047 13.7139C119.199 14.6612 119.182 15.686 118.997 16.7884L110.707 16.9207C110.777 17.935 110.997 18.7004 111.367 19.2169C111.823 19.8542 112.524 20.1728 113.471 20.1728C113.876 20.1728 114.214 20.1211 114.485 20.0178C114.755 19.9145 114.975 19.768 115.143 19.5786C115.313 19.3719 115.431 19.1308 115.499 18.8552C115.566 18.5624 115.592 18.2351 115.575 17.8735L119.326 18.0801C119.377 18.6485 119.318 19.2341 119.149 19.8369C118.997 20.4397 118.701 20.9995 118.261 21.5162C117.822 22.033 117.205 22.4549 116.411 22.7822C115.634 23.1095 114.645 23.2731 113.445 23.2731ZM115.374 14.5501L110.793 14.6403C110.825 14.4417 110.864 14.2535 110.91 14.0756C111.063 13.4728 111.324 13.0078 111.696 12.6805C112.068 12.3533 112.567 12.1897 113.192 12.1897C113.783 12.1897 114.248 12.3361 114.586 12.6289C114.924 12.9044 115.152 13.3178 115.27 13.869C115.297 13.9747 115.319 14.0855 115.337 14.2014C115.354 14.3129 115.366 14.4292 115.374 14.5501ZM94.7957 19.3977V22.9114H106.025V19.5528H99.5865V19.4494L105.949 12.8097V9.27025H94.9225V12.6289H101.158V12.7839L94.7957 19.3977Z" fill="#156FF7"/>
<path d="M141.433 24.0631C142.503 24.0631 143.37 23.179 143.37 22.0885C143.37 20.9979 142.503 20.1138 141.433 20.1138C140.363 20.1138 139.495 20.9979 139.495 22.0885C139.495 23.179 140.363 24.0631 141.433 24.0631Z" fill="#156FF7"/>
<path d="M147.084 7.11392C148.154 7.11392 149.021 6.22982 149.021 5.13923C149.021 4.04865 148.154 3.16455 147.084 3.16455C146.014 3.16455 145.146 4.04865 145.146 5.13923C145.146 6.22982 146.014 7.11392 147.084 7.11392Z" fill="#156FF7"/>
<path d="M41.332 7.11392C42.402 7.11392 43.2694 6.22982 43.2694 5.13923C43.2694 4.04865 42.402 3.16455 41.332 3.16455C40.262 3.16455 39.3946 4.04865 39.3946 5.13923C39.3946 6.22982 40.262 7.11392 41.332 7.11392Z" fill="#156FF7"/>
</g>
<defs>
<clipPath id="clip0_154_1241">
<rect width="160" height="26" fill="white" transform="translate(0 3)"/>
</clipPath>
</defs>
</svg>
